{"title":"Gocho - Si Te Digo La Verdad (h264/mp4)","uid":7408130,"size":56468629,"categoryP":"video","categoryS":"music_videos","magnet":"?xt=urn:btih:63dbe9da3b00a843971fe726336320ba8e6083ad&amp;dn=Gocho+-+Si+Te+Digo+La+Verdad+%28h264%2Fmp4%29&amp;tr=udp%3A%2F%2Ftracker.openbittorrent.com%3A80&amp;tr=udp%3A%2F%2Fopen.demonii.com%3A1337&amp;tr=udp%3A%2F%2Ftracker.coppersurfer.tk%3A6969&amp;tr=udp%3A%2F%2Fexodus.desync.com%3A6969","seeders":1,"leechers":0,"uploader":"MusicVideos-HQ","files":1,"time":1341305048,"description":"General\n\nFormat                           : MPEG-4\nFormat profile                   : Base Media\nCodec ID                         : isom\nFile size                        : 53.9 MiB\nDuration                         : 3mn 6s\nOverall bit rate                 : 2 421 Kbps\nEncoded date                     : UTC 2012-07-01 22:31:12\nTagged date                      : UTC 2012-07-01 22:31:12\n\nVideo\nID                               : 1\nFormat                           : AVC\nFormat/Info                      : Advanced Video Codec\nFormat profile                   : &lt;a class=&quot;__cf_email__&quot; href=&quot;/cdn-cgi/l/email-protection&quot; data-cfemail=&quot;df97b6b8b79f93ecf1ef&quot;&gt;[email&amp;#160;protected]&lt;/a&gt;&lt;script cf-hash='f9e31' type=&quot;text/javascript&quot;&gt;\n/* &lt;![CDATA[ */!function(){try{var t=&quot;currentScript&quot;in document?document.currentScript:function(){for(var t=document.getElementsByTagName(&quot;script&quot;),e=t.length;e--;)if(t[e].getAttribute(&quot;cf-hash&quot;))return t[e]}();if(t&amp;&amp;t.previousSibling){var e,r,n,i,c=t.previousSibling,a=c.getAttribute(&quot;data-cfemail&quot;);if(a){for(e=&quot;&quot;,r=parseInt(a.substr(0,2),16),n=2;a.length-n;n+=2)i=parseInt(a.substr(n,2),16)^r,e+=String.fromCharCode(i);e=document.createTextNode(e),c.parentNode.replaceChild(e,c)}}}catch(u){}}();/* ]]&gt; */&lt;/script&gt;\nFormat settings, CABAC           : Yes\nFormat settings, ReFrames        : 2 frames\nCodec ID                         : avc1\nCodec ID/Info                    : Advanced Video Coding\nDuration                         : 3mn 6s\nBit rate mode                    : Variable\nBit rate                         : 2 307 Kbps\nMaximum bit rate                 : 4 394 Kbps\nWidth                            : 720 pixels\nHeight                           : 480 pixels\nDisplay aspect ratio             : 16:9\nOriginal display aspect ratio    : 16:9\nFrame rate mode                  : Constant\nFrame rate                       : 25.000 fps\nStandard                         : NTSC\nColor space                      : YUV\nChroma subsampling               : 4:2:0\nBit depth                        : 8 bits\nScan type                        : Progressive\nBits/(Pixel*Frame)               : 0.267\nStream size                      : 51.1 MiB (95%)\n\n\nAudio\nID                               : 2\nFormat                           : MPEG Audio\nFormat version                   : Version 1\nFormat profile                   : Layer 3\nMode                             : Joint stereo\nMode extension                   : MS Stereo\nCodec ID                         : 6B\nDuration                         : 3mn 6s\nBit rate mode                    : Variable\nBit rate                         : 118 Kbps\nMinimum bit rate                 : 32.0 Kbps\nMaximum bit rate                 : 141 Kbps\nChannel(s)                       : 2 channels\nSampling rate                    : 44.1 KHz\nCompression mode                 : Lossy\nStream size                      : 2.63 MiB (5%)","torrent":{"xt":"urn:btih:63dbe9da3b00a843971fe726336320ba8e6083ad","amp;dn":"Gocho+-+Si+Te+Digo+La+Verdad+%28h264%2Fmp4%29","amp;tr":["udp%3A%2F%2Ftracker.openbittorrent.com%3A80","udp%3A%2F%2Fopen.demonii.com%3A1337","udp%3A%2F%2Ftracker.coppersurfer.tk%3A6969","udp%3A%2F%2Fexodus.desync.com%3A6969"],"infoHash":"63dbe9da3b00a843971fe726336320ba8e6083ad","infoHashBuffer":{"type":"Buffer","data":[99,219,233,218,59,0,168,67,151,31,231,38,51,99,32,186,142,96,131,173]},"announce":[],"urlList":[]}}